<svg width="1415" height="1348" viewBox="0 0 1415 1348" fill="none" xmlns="http://www.w3.org/2000/svg">
<path d="M727.55 1344.38C554.363 1359.73 382.36 1311.85 247.696 1210.81C239.529 1204.72 231.529 1198.43 223.695 1191.95C211.693 1182.08 200.088 1171.8 188.879 1161.12C83.8361 1061.27 18.3091 930.874 2.86999 790.97C2.348 786.309 1.88108 781.626 1.46935 776.92C-8.3117 665.122 43.3999 518.906 120.85 383.545C127.257 372.346 133.843 361.226 140.607 350.186C143.735 345.028 146.915 339.889 150.148 334.77C183.097 282.294 219.922 231.998 260.352 184.253C286.738 153.001 315.257 123.364 345.728 95.5305C466.803 -13.8627 581.734 -45.7098 617.978 91.9762C622.261 108.279 626.695 124.076 631.283 139.369C637.904 161.523 644.813 182.675 652.008 202.825C661.675 229.969 671.806 255.38 682.4 279.057C685.953 287.023 689.546 294.795 693.179 302.375C746.943 414.427 810.619 487.002 876.965 534.389C888.197 542.429 899.494 549.758 910.855 556.377C928.154 566.512 946.193 575.514 964.846 583.321C990.755 594.08 1017.66 602.668 1045.25 608.983L1046.76 609.33C1180.32 639.968 1299.67 616.65 1344.04 659.46C1533.74 842.453 1309.84 1110.53 1030.49 1251.6C1016.41 1258.71 1002.22 1265.48 987.907 1271.91C981.515 1274.8 975.103 1277.6 968.671 1280.33C951.914 1287.48 935.067 1294.11 918.13 1300.22C911.672 1302.56 905.212 1304.82 898.751 1306.99C891.778 1309.33 884.817 1311.59 877.845 1313.72C826.815 1329.54 776.052 1340.14 727.55 1344.38Z" fill="url(#paint0_linear_15_6)"/>
<defs>
<linearGradient id="paint0_linear_15_6" x1="1333.14" y1="855.603" x2="207.924" y2="291.762" gradientUnits="userSpaceOnUse">
<stop stop-color="#4AC5B6"/>
<stop offset="1" stop-color="#2D9E90"/>
</linearGradient>
</defs>
</svg>
