<svg width="1922" height="1082" viewBox="0 0 1922 1082" fill="none" xmlns="http://www.w3.org/2000/svg">
<g clip-path="url(#clip0_1_2)">
<rect x="1" y="1" width="1920" height="1080" fill="white"/>
<rect x="1" y="1" width="1920" height="1080" fill="url(#paint0_linear_1_2)"/>
<g clip-path="url(#clip1_1_2)">
<path d="M1865.88 506.54C1865.99 598.209 1830.56 686.352 1767.03 752.44C1763.2 756.45 1759.26 760.363 1755.23 764.18C1749.08 770.03 1742.72 775.653 1736.16 781.05C1674.76 831.634 1598.11 860.059 1518.58 861.74C1515.93 861.8 1513.27 861.83 1510.6 861.83C1447.17 861.83 1367.39 827.95 1294.99 781.05C1289 777.17 1283.06 773.2 1277.18 769.14C1274.43 767.26 1271.69 765.353 1268.97 763.42C1241.04 743.702 1214.54 722.049 1189.65 698.62C1173.35 683.325 1158.07 666.983 1143.9 649.7C1088.27 581.079 1076 519.25 1155.31 506.54C1164.7 505.04 1173.81 503.436 1182.65 501.73C1195.45 499.27 1207.7 496.613 1219.4 493.76C1235.16 489.93 1249.96 485.776 1263.82 481.3C1268.48 479.8 1273.03 478.27 1277.48 476.71C1343.22 453.62 1387.22 423.51 1417.17 390.84C1422.25 385.31 1426.93 379.713 1431.22 374.05C1437.78 365.429 1443.73 356.368 1449.05 346.93C1456.38 333.816 1462.54 320.079 1467.46 305.88L1467.73 305.1C1491.56 236.36 1484.31 172.6 1510.6 151.26C1622.98 60.0295 1762.89 189.95 1828.56 343.16C1831.87 350.88 1834.98 358.646 1837.9 366.46C1839.21 369.95 1840.47 373.446 1841.69 376.95C1844.89 386.079 1847.79 395.233 1850.4 404.41C1851.4 407.91 1852.35 411.406 1853.26 414.9C1854.23 418.67 1855.16 422.43 1856.02 426.19C1862.41 453.72 1865.88 480.87 1865.88 506.54Z" fill="url(#paint1_linear_1_2)"/>
<path d="M1518.58 861.74C1515.93 861.8 1513.27 861.83 1510.6 861.83C1447.17 861.83 1367.39 827.95 1294.99 781.05C1289 777.17 1283.06 773.2 1277.18 769.14L1282.34 737.74L1438.55 717L1516.95 776.95L1518.58 861.74Z" fill="#2F2E41"/>
<path d="M1526.1 301.05H1503.84C1503.15 301.05 1502.49 301.324 1502 301.811C1501.51 302.299 1501.24 302.96 1501.24 303.649V325.919C1501.24 326.26 1501.31 326.598 1501.44 326.913C1501.57 327.227 1501.76 327.513 1502 327.754C1502.24 327.994 1502.53 328.185 1502.84 328.315C1503.16 328.444 1503.5 328.51 1503.84 328.51H1526.1C1526.79 328.51 1527.45 328.237 1527.93 327.752C1528.42 327.266 1528.7 326.607 1528.7 325.919V303.649C1528.7 302.961 1528.42 302.3 1527.93 301.813C1527.45 301.326 1526.79 301.052 1526.1 301.05Z" fill="white"/>
<path d="M1526.1 339H1503.84C1503.15 339 1502.49 339.274 1502 339.761C1501.51 340.249 1501.24 340.91 1501.24 341.6V363.87C1501.24 364.21 1501.31 364.548 1501.44 364.863C1501.57 365.177 1501.76 365.463 1502 365.704C1502.24 365.944 1502.53 366.135 1502.84 366.265C1503.16 366.394 1503.5 366.461 1503.84 366.46H1526.1C1526.79 366.46 1527.45 366.187 1527.93 365.702C1528.42 365.216 1528.7 364.557 1528.7 363.87V341.6C1528.7 340.911 1528.42 340.25 1527.93 339.763C1527.45 339.276 1526.79 339.002 1526.1 339Z" fill="#E6E6E6"/>
<path d="M1526.1 376.95H1503.84C1503.15 376.95 1502.49 377.224 1502 377.711C1501.51 378.199 1501.24 378.86 1501.24 379.55V401.81C1501.24 402.151 1501.3 402.49 1501.43 402.805C1501.57 403.121 1501.76 403.408 1502 403.65C1502.24 403.891 1502.53 404.083 1502.84 404.213C1503.16 404.343 1503.5 404.41 1503.84 404.409H1526.1C1526.79 404.409 1527.45 404.135 1527.94 403.648C1528.42 403.16 1528.7 402.499 1528.7 401.81V379.55C1528.7 378.861 1528.42 378.2 1527.93 377.713C1527.45 377.226 1526.79 376.952 1526.1 376.95Z" fill="#E6E6E6"/>
<path d="M1528.66 417.04C1528.55 416.441 1528.23 415.899 1527.76 415.509C1527.3 415.118 1526.71 414.903 1526.1 414.899H1503.84C1503.15 414.9 1502.49 415.174 1502 415.661C1501.51 416.149 1501.24 416.81 1501.24 417.5V439.76C1501.24 440.101 1501.3 440.44 1501.43 440.755C1501.57 441.071 1501.76 441.358 1502 441.6C1502.24 441.841 1502.53 442.033 1502.84 442.163C1503.16 442.293 1503.5 442.36 1503.84 442.36H1526.1C1526.79 442.359 1527.45 442.085 1527.94 441.598C1528.42 441.11 1528.7 440.449 1528.7 439.76V417.5C1528.7 417.345 1528.69 417.191 1528.66 417.04Z" fill="#E6E6E6"/>
<path d="M1527.11 453.05C1526.79 452.917 1526.44 452.849 1526.1 452.85H1503.84C1503.5 452.849 1503.16 452.916 1502.84 453.046C1502.53 453.177 1502.24 453.368 1502 453.61C1501.76 453.851 1501.57 454.138 1501.43 454.454C1501.3 454.77 1501.24 455.108 1501.24 455.45V477.71C1501.24 478.051 1501.3 478.39 1501.43 478.706C1501.56 479.022 1501.75 479.31 1502 479.551C1502.24 479.793 1502.53 479.985 1502.84 480.115C1503.16 480.245 1503.5 480.311 1503.84 480.31H1526.1C1526.79 480.309 1527.45 480.035 1527.94 479.548C1528.42 479.06 1528.7 478.399 1528.7 477.71V455.45C1528.7 454.938 1528.55 454.438 1528.26 454.011C1527.98 453.585 1527.58 453.25 1527.11 453.05Z" fill="#E6E6E6"/>
<path d="M1572.86 301.05H1550.6C1549.91 301.05 1549.25 301.324 1548.76 301.811C1548.27 302.299 1548 302.96 1548 303.649V325.919C1548 326.26 1548.07 326.598 1548.2 326.913C1548.33 327.227 1548.52 327.513 1548.76 327.754C1549 327.994 1549.29 328.185 1549.6 328.315C1549.92 328.444 1550.26 328.51 1550.6 328.51H1572.86C1573.55 328.51 1574.21 328.237 1574.69 327.752C1575.18 327.266 1575.46 326.607 1575.46 325.919V303.649C1575.46 302.961 1575.18 302.3 1574.69 301.813C1574.21 301.326 1573.55 301.052 1572.86 301.05Z" fill="#E6E6E6"/>
<path d="M1572.86 339H1550.6C1549.91 339 1549.25 339.274 1548.76 339.761C1548.27 340.249 1548 340.91 1548 341.6V363.87C1548 364.21 1548.07 364.548 1548.2 364.863C1548.33 365.177 1548.52 365.463 1548.76 365.704C1549 365.944 1549.29 366.135 1549.6 366.265C1549.92 366.394 1550.26 366.461 1550.6 366.46H1572.86C1573.55 366.46 1574.21 366.187 1574.69 365.702C1575.18 365.216 1575.46 364.557 1575.46 363.87V341.6C1575.46 340.911 1575.18 340.25 1574.69 339.763C1574.21 339.276 1573.55 339.002 1572.86 339Z" fill="#6C63FF"/>
<path d="M1572.86 376.95H1550.6C1549.91 376.95 1549.25 377.224 1548.76 377.711C1548.27 378.199 1548 378.86 1548 379.55V401.81C1548 402.151 1548.06 402.49 1548.19 402.805C1548.33 403.121 1548.52 403.408 1548.76 403.65C1549 403.891 1549.29 404.083 1549.6 404.213C1549.92 404.343 1550.26 404.41 1550.6 404.409H1572.86C1573.55 404.409 1574.21 404.135 1574.7 403.648C1575.18 403.16 1575.46 402.499 1575.46 401.81V379.55C1575.46 378.861 1575.18 378.2 1574.69 377.713C1574.21 377.226 1573.55 376.952 1572.86 376.95Z" fill="#6C63FF"/>
<path d="M1572.86 414.899H1550.6C1550.05 414.9 1549.52 415.072 1549.08 415.392C1548.64 415.711 1548.31 416.162 1548.14 416.679C1548.05 416.943 1548 417.22 1548 417.5V439.76C1548 440.101 1548.06 440.44 1548.19 440.755C1548.33 441.071 1548.52 441.358 1548.76 441.6C1549 441.841 1549.29 442.033 1549.6 442.163C1549.92 442.293 1550.26 442.36 1550.6 442.36H1572.86C1573.55 442.359 1574.21 442.085 1574.7 441.598C1575.18 441.11 1575.46 440.449 1575.46 439.76V417.5C1575.46 416.811 1575.18 416.15 1574.69 415.663C1574.21 415.176 1573.55 414.902 1572.86 414.899Z" fill="#6C63FF"/>
<path d="M1572.86 452.85H1550.6C1550.26 452.849 1549.92 452.916 1549.6 453.046C1549.29 453.177 1549 453.368 1548.76 453.61C1548.52 453.851 1548.33 454.138 1548.19 454.454C1548.06 454.77 1548 455.108 1548 455.45V477.71C1548 478.051 1548.06 478.39 1548.19 478.705C1548.33 479.021 1548.52 479.308 1548.76 479.55C1549 479.791 1549.29 479.983 1549.6 480.113C1549.92 480.244 1550.26 480.31 1550.6 480.31H1572.86C1573.55 480.309 1574.21 480.035 1574.7 479.548C1575.18 479.06 1575.46 478.399 1575.46 477.71V455.45C1575.46 454.76 1575.18 454.099 1574.7 453.611C1574.21 453.124 1573.55 452.85 1572.86 452.85Z" fill="#E6E6E6"/>
<path d="M1619.62 301.05H1597.36C1596.67 301.05 1596.01 301.324 1595.52 301.811C1595.03 302.299 1594.76 302.96 1594.76 303.649V325.919C1594.76 326.26 1594.83 326.598 1594.96 326.913C1595.09 327.227 1595.28 327.513 1595.52 327.754C1595.76 327.994 1596.05 328.185 1596.36 328.315C1596.68 328.444 1597.02 328.51 1597.36 328.51H1619.62C1620.31 328.51 1620.97 328.237 1621.45 327.752C1621.94 327.266 1622.22 326.607 1622.22 325.919V303.649C1622.22 302.961 1621.94 302.3 1621.45 301.813C1620.97 301.326 1620.31 301.052 1619.62 301.05Z" fill="#6C63FF"/>
<path d="M1619.62 339H1597.36C1596.67 339 1596.01 339.274 1595.52 339.761C1595.03 340.249 1594.76 340.91 1594.76 341.6V363.87C1594.76 364.21 1594.83 364.548 1594.96 364.863C1595.09 365.177 1595.28 365.463 1595.52 365.704C1595.76 365.944 1596.05 366.135 1596.36 366.265C1596.68 366.394 1597.02 366.461 1597.36 366.46H1619.62C1620.31 366.46 1620.97 366.187 1621.45 365.702C1621.94 365.216 1622.22 364.557 1622.22 363.87V341.6C1622.22 340.911 1621.94 340.25 1621.45 339.763C1620.97 339.276 1620.31 339.002 1619.62 339Z" fill="#6C63FF"/>
<path d="M1619.62 376.95H1597.36C1596.67 376.95 1596.01 377.224 1595.52 377.711C1595.03 378.199 1594.76 378.86 1594.76 379.55V401.81C1594.76 402.151 1594.82 402.49 1594.95 402.805C1595.09 403.121 1595.28 403.408 1595.52 403.65C1595.76 403.891 1596.05 404.083 1596.36 404.213C1596.68 404.343 1597.02 404.41 1597.36 404.409H1619.62C1620.31 404.409 1620.97 404.135 1621.46 403.648C1621.94 403.16 1622.22 402.499 1622.22 401.81V379.55C1622.22 378.861 1621.94 378.2 1621.45 377.713C1620.97 377.226 1620.31 376.952 1619.62 376.95Z" fill="#E6E6E6"/>
<path d="M1619.62 414.899H1597.36C1596.67 414.9 1596.01 415.174 1595.52 415.661C1595.03 416.149 1594.76 416.81 1594.76 417.5V439.76C1594.76 440.101 1594.82 440.44 1594.95 440.755C1595.09 441.071 1595.28 441.358 1595.52 441.6C1595.76 441.841 1596.05 442.033 1596.36 442.163C1596.68 442.293 1597.02 442.36 1597.36 442.36H1619.62C1620.31 442.359 1620.97 442.085 1621.46 441.598C1621.94 441.11 1622.22 440.449 1622.22 439.76V417.5C1622.22 416.811 1621.94 416.15 1621.45 415.663C1620.97 415.176 1620.31 414.902 1619.62 414.899Z" fill="#6C63FF"/>
<path d="M1619.62 452.85H1597.36C1597.02 452.849 1596.68 452.916 1596.36 453.046C1596.05 453.177 1595.76 453.368 1595.52 453.61C1595.28 453.851 1595.09 454.138 1594.95 454.454C1594.82 454.77 1594.76 455.108 1594.76 455.45V477.71C1594.76 478.051 1594.82 478.39 1594.95 478.705C1595.09 479.021 1595.28 479.308 1595.52 479.55C1595.76 479.791 1596.05 479.983 1596.36 480.113C1596.68 480.244 1597.02 480.31 1597.36 480.31H1619.62C1620.31 480.309 1620.97 480.035 1621.46 479.548C1621.94 479.06 1622.22 478.399 1622.22 477.71V455.45C1622.22 454.76 1621.94 454.099 1621.46 453.611C1620.97 453.124 1620.31 452.85 1619.62 452.85Z" fill="#6C63FF"/>
<path d="M1666.38 301.05H1644.12C1643.43 301.05 1642.77 301.324 1642.28 301.811C1641.79 302.299 1641.52 302.96 1641.52 303.649V325.919C1641.52 326.26 1641.59 326.598 1641.72 326.913C1641.85 327.227 1642.04 327.513 1642.28 327.754C1642.52 327.994 1642.81 328.185 1643.12 328.315C1643.44 328.444 1643.78 328.511 1644.12 328.51H1666.38C1667.07 328.51 1667.73 328.237 1668.21 327.752C1668.7 327.266 1668.98 326.607 1668.98 325.919V303.649C1668.98 302.961 1668.7 302.3 1668.21 301.813C1667.73 301.326 1667.07 301.052 1666.38 301.05Z" fill="#6C63FF"/>
<path d="M1666.38 339H1644.12C1643.43 339 1642.77 339.274 1642.28 339.761C1641.79 340.249 1641.52 340.91 1641.52 341.6V363.87C1641.52 364.21 1641.59 364.548 1641.72 364.863C1641.85 365.177 1642.04 365.463 1642.28 365.704C1642.52 365.944 1642.81 366.135 1643.12 366.265C1643.44 366.394 1643.78 366.461 1644.12 366.46H1666.38C1667.07 366.46 1667.73 366.187 1668.21 365.702C1668.7 365.216 1668.98 364.557 1668.98 363.87V341.6C1668.98 340.911 1668.7 340.25 1668.21 339.763C1667.73 339.276 1667.07 339.002 1666.38 339Z" fill="white"/>
<path d="M1666.38 376.95H1644.12C1643.43 376.95 1642.77 377.224 1642.28 377.711C1641.79 378.199 1641.52 378.86 1641.52 379.55V401.81C1641.52 402.151 1641.58 402.49 1641.71 402.805C1641.85 403.121 1642.04 403.408 1642.28 403.65C1642.52 403.891 1642.81 404.083 1643.12 404.213C1643.44 404.343 1643.78 404.41 1644.12 404.409H1666.38C1667.07 404.409 1667.73 404.135 1668.22 403.648C1668.7 403.16 1668.98 402.499 1668.98 401.81V379.55C1668.98 378.861 1668.7 378.2 1668.21 377.713C1667.73 377.226 1667.07 376.952 1666.38 376.95Z" fill="white"/>
<path d="M1666.38 414.899H1644.12C1643.43 414.9 1642.77 415.174 1642.28 415.661C1641.79 416.149 1641.52 416.81 1641.52 417.5V439.76C1641.52 440.101 1641.58 440.44 1641.71 440.755C1641.85 441.071 1642.04 441.358 1642.28 441.6C1642.52 441.841 1642.81 442.033 1643.12 442.163C1643.44 442.293 1643.78 442.36 1644.12 442.36H1666.38C1667.07 442.359 1667.73 442.085 1668.22 441.598C1668.7 441.11 1668.98 440.449 1668.98 439.76V417.5C1668.98 416.811 1668.7 416.15 1668.21 415.663C1667.73 415.176 1667.07 414.902 1666.38 414.899Z" fill="#E6E6E6"/>
<path d="M1666.38 452.85H1644.12C1643.78 452.849 1643.44 452.916 1643.12 453.046C1642.81 453.177 1642.52 453.368 1642.28 453.61C1642.04 453.851 1641.85 454.138 1641.71 454.454C1641.58 454.77 1641.52 455.108 1641.52 455.45V477.71C1641.52 478.051 1641.58 478.39 1641.71 478.705C1641.85 479.021 1642.04 479.308 1642.28 479.55C1642.52 479.791 1642.81 479.983 1643.12 480.113C1643.44 480.244 1643.78 480.31 1644.12 480.31H1666.38C1667.07 480.309 1667.73 480.035 1668.22 479.548C1668.7 479.06 1668.98 478.399 1668.98 477.71V455.45C1668.98 454.76 1668.7 454.099 1668.22 453.611C1667.73 453.124 1667.07 452.85 1666.38 452.85Z" fill="#6C63FF"/>
<path d="M1713.14 301.05H1690.87C1690.18 301.052 1689.52 301.327 1689.04 301.814C1688.55 302.302 1688.28 302.962 1688.28 303.649V325.919C1688.28 326.606 1688.55 327.265 1689.04 327.751C1689.52 328.236 1690.18 328.509 1690.87 328.51H1713.14C1713.83 328.51 1714.49 328.237 1714.97 327.752C1715.46 327.266 1715.74 326.607 1715.74 325.919V303.649C1715.74 302.961 1715.46 302.3 1714.97 301.813C1714.49 301.326 1713.83 301.052 1713.14 301.05Z" fill="white"/>
<path d="M1713.14 339H1690.87C1690.18 339.002 1689.52 339.277 1689.04 339.764C1688.55 340.252 1688.28 340.912 1688.28 341.6V363.87C1688.28 364.556 1688.55 365.215 1689.04 365.701C1689.52 366.187 1690.18 366.459 1690.87 366.46H1713.14C1713.83 366.46 1714.49 366.187 1714.97 365.702C1715.46 365.216 1715.74 364.557 1715.74 363.87V341.6C1715.74 340.911 1715.46 340.25 1714.97 339.763C1714.49 339.276 1713.83 339.002 1713.14 339Z" fill="white"/>
<path d="M1713.14 376.95H1690.87C1690.18 376.952 1689.52 377.227 1689.04 377.714C1688.55 378.202 1688.28 378.862 1688.28 379.55V401.81C1688.28 402.15 1688.34 402.488 1688.47 402.803C1688.6 403.119 1688.79 403.405 1689.03 403.647C1689.27 403.888 1689.56 404.08 1689.87 404.211C1690.19 404.342 1690.53 404.409 1690.87 404.409H1713.14C1713.83 404.409 1714.49 404.135 1714.98 403.648C1715.46 403.16 1715.74 402.499 1715.74 401.81V379.55C1715.74 378.861 1715.46 378.2 1714.97 377.713C1714.49 377.226 1713.83 376.952 1713.14 376.95Z" fill="white"/>
<path d="M1713.14 414.899H1690.87C1690.18 414.902 1689.52 415.177 1689.04 415.664C1688.55 416.152 1688.28 416.812 1688.28 417.5V439.76C1688.28 440.1 1688.34 440.438 1688.47 440.753C1688.6 441.069 1688.79 441.355 1689.03 441.597C1689.27 441.838 1689.56 442.03 1689.87 442.161C1690.19 442.292 1690.53 442.359 1690.87 442.36H1713.14C1713.83 442.359 1714.49 442.085 1714.98 441.598C1715.46 441.11 1715.74 440.449 1715.74 439.76V417.5C1715.74 416.811 1715.46 416.15 1714.97 415.663C1714.49 415.176 1713.83 414.902 1713.14 414.899Z" fill="#6C63FF"/>
<path d="M1713.14 452.85H1690.87C1690.53 452.85 1690.19 452.917 1689.87 453.048C1689.56 453.179 1689.27 453.371 1689.03 453.612C1688.79 453.854 1688.6 454.141 1688.47 454.456C1688.34 454.771 1688.28 455.109 1688.28 455.45V477.71C1688.28 478.05 1688.34 478.388 1688.47 478.703C1688.6 479.019 1688.79 479.305 1689.03 479.547C1689.27 479.788 1689.56 479.98 1689.87 480.111C1690.19 480.242 1690.53 480.309 1690.87 480.31H1713.14C1713.83 480.309 1714.49 480.035 1714.98 479.548C1715.46 479.06 1715.74 478.399 1715.74 477.71V455.45C1715.74 454.76 1715.46 454.099 1714.98 453.611C1714.49 453.124 1713.83 452.85 1713.14 452.85Z" fill="#E6E6E6"/>
<path d="M1759.9 301.05H1737.63C1736.94 301.052 1736.28 301.327 1735.8 301.814C1735.31 302.302 1735.04 302.962 1735.04 303.649V325.919C1735.04 326.606 1735.31 327.265 1735.8 327.751C1736.28 328.236 1736.94 328.509 1737.63 328.51H1759.9C1760.59 328.51 1761.25 328.237 1761.73 327.752C1762.22 327.266 1762.5 326.607 1762.5 325.919V303.649C1762.5 302.961 1762.22 302.3 1761.73 301.813C1761.25 301.326 1760.59 301.052 1759.9 301.05Z" fill="white"/>
<path d="M1759.9 339H1737.63C1736.94 339.002 1736.28 339.277 1735.8 339.764C1735.31 340.252 1735.04 340.912 1735.04 341.6V363.87C1735.04 364.556 1735.31 365.215 1735.8 365.701C1736.28 366.187 1736.94 366.459 1737.63 366.46H1759.9C1760.59 366.46 1761.25 366.187 1761.73 365.702C1762.22 365.216 1762.5 364.557 1762.5 363.87V341.6C1762.5 340.911 1762.22 340.25 1761.73 339.763C1761.25 339.276 1760.59 339.002 1759.9 339Z" fill="white"/>
<path d="M1759.9 376.95H1737.63C1736.94 376.952 1736.28 377.227 1735.8 377.714C1735.31 378.202 1735.04 378.862 1735.04 379.55V401.81C1735.04 402.15 1735.1 402.488 1735.23 402.803C1735.36 403.119 1735.55 403.405 1735.79 403.647C1736.03 403.888 1736.32 404.08 1736.63 404.211C1736.95 404.342 1737.29 404.409 1737.63 404.409H1759.9C1760.59 404.409 1761.25 404.135 1761.74 403.648C1762.22 403.16 1762.5 402.499 1762.5 401.81V379.55C1762.5 378.861 1762.22 378.2 1761.73 377.713C1761.25 377.226 1760.59 376.952 1759.9 376.95Z" fill="#6C63FF"/>
<path d="M1759.9 414.899H1737.63C1736.94 414.902 1736.28 415.177 1735.8 415.664C1735.31 416.152 1735.04 416.812 1735.04 417.5V439.76C1735.04 440.1 1735.1 440.438 1735.23 440.753C1735.36 441.069 1735.55 441.355 1735.79 441.597C1736.03 441.838 1736.32 442.03 1736.63 442.161C1736.95 442.292 1737.29 442.359 1737.63 442.36H1759.9C1760.59 442.359 1761.25 442.085 1761.74 441.598C1762.22 441.11 1762.5 440.449 1762.5 439.76V417.5C1762.5 416.811 1762.22 416.15 1761.73 415.663C1761.25 415.176 1760.59 414.902 1759.9 414.899Z" fill="#E6E6E6"/>
<path d="M1759.9 452.85H1737.63C1737.29 452.85 1736.95 452.917 1736.63 453.048C1736.32 453.179 1736.03 453.371 1735.79 453.612C1735.55 453.854 1735.36 454.141 1735.23 454.456C1735.1 454.771 1735.04 455.109 1735.04 455.45V477.71C1735.04 478.05 1735.1 478.388 1735.23 478.703C1735.36 479.019 1735.55 479.305 1735.79 479.547C1736.03 479.788 1736.32 479.98 1736.63 480.111C1736.95 480.242 1737.29 480.309 1737.63 480.31H1759.9C1760.59 480.309 1761.25 480.035 1761.74 479.548C1762.22 479.06 1762.5 478.399 1762.5 477.71V455.45C1762.5 454.76 1762.22 454.099 1761.74 453.611C1761.25 453.124 1760.59 452.85 1759.9 452.85Z" fill="white"/>
<path d="M1806.66 301.05H1784.39C1783.7 301.052 1783.04 301.327 1782.56 301.814C1782.07 302.302 1781.8 302.962 1781.8 303.649V325.919C1781.8 326.606 1782.07 327.265 1782.56 327.751C1783.04 328.236 1783.7 328.509 1784.39 328.51H1806.66C1807.35 328.51 1808.01 328.237 1808.49 327.752C1808.98 327.266 1809.26 326.607 1809.26 325.919V303.649C1809.26 302.961 1808.98 302.3 1808.49 301.813C1808.01 301.326 1807.35 301.052 1806.66 301.05Z" fill="#6C63FF"/>
<path d="M1806.66 339H1784.39C1783.7 339.002 1783.04 339.277 1782.56 339.764C1782.07 340.252 1781.8 340.912 1781.8 341.6V363.87C1781.8 364.556 1782.07 365.215 1782.56 365.701C1783.04 366.187 1783.7 366.459 1784.39 366.46H1806.66C1807.35 366.46 1808.01 366.187 1808.49 365.702C1808.98 365.216 1809.26 364.557 1809.26 363.87V341.6C1809.26 340.911 1808.98 340.25 1808.49 339.763C1808.01 339.276 1807.35 339.002 1806.66 339Z" fill="#6C63FF"/>
<path d="M1806.66 376.95H1784.39C1783.7 376.952 1783.04 377.227 1782.56 377.714C1782.07 378.202 1781.8 378.862 1781.8 379.55V401.81C1781.8 402.15 1781.86 402.488 1781.99 402.803C1782.12 403.119 1782.31 403.405 1782.55 403.647C1782.79 403.888 1783.08 404.08 1783.39 404.211C1783.71 404.342 1784.05 404.409 1784.39 404.409H1806.66C1807.35 404.409 1808.01 404.135 1808.5 403.648C1808.98 403.16 1809.26 402.499 1809.26 401.81V379.55C1809.26 378.861 1808.98 378.2 1808.49 377.713C1808.01 377.226 1807.35 376.952 1806.66 376.95Z" fill="#E6E6E6"/>
<path d="M1806.66 414.899H1784.39C1783.7 414.902 1783.04 415.177 1782.56 415.664C1782.07 416.152 1781.8 416.812 1781.8 417.5V439.76C1781.8 440.1 1781.86 440.438 1781.99 440.753C1782.12 441.069 1782.31 441.355 1782.55 441.597C1782.79 441.838 1783.08 442.03 1783.39 442.161C1783.71 442.292 1784.05 442.359 1784.39 442.36H1806.66C1807.35 442.359 1808.01 442.085 1808.5 441.598C1808.98 441.11 1809.26 440.449 1809.26 439.76V417.5C1809.26 416.811 1808.98 416.15 1808.49 415.663C1808.01 415.176 1807.35 414.902 1806.66 414.899Z" fill="white"/>
<path d="M1806.66 452.85H1784.39C1784.05 452.85 1783.71 452.917 1783.39 453.048C1783.08 453.179 1782.79 453.371 1782.55 453.612C1782.31 453.854 1782.12 454.141 1781.99 454.456C1781.86 454.771 1781.8 455.109 1781.8 455.45V477.71C1781.8 478.05 1781.86 478.388 1781.99 478.703C1782.12 479.019 1782.31 479.305 1782.55 479.547C1782.79 479.788 1783.08 479.98 1783.39 480.111C1783.71 480.242 1784.05 480.309 1784.39 480.31H1806.66C1807.35 480.309 1808.01 480.035 1808.5 479.548C1808.98 479.06 1809.26 478.399 1809.26 477.71V455.45C1809.26 454.76 1808.98 454.099 1808.5 453.611C1808.01 453.124 1807.35 452.85 1806.66 452.85Z" fill="#6C63FF"/>
<path d="M1853.42 301.05H1831.15C1830.46 301.052 1829.8 301.327 1829.32 301.814C1828.83 302.302 1828.56 302.962 1828.56 303.649V325.919C1828.56 326.606 1828.83 327.265 1829.32 327.751C1829.8 328.236 1830.46 328.509 1831.15 328.51H1853.42C1854.11 328.51 1854.77 328.237 1855.25 327.752C1855.74 327.266 1856.02 326.607 1856.02 325.919V303.649C1856.02 302.961 1855.74 302.3 1855.25 301.813C1854.77 301.326 1854.11 301.052 1853.42 301.05Z" fill="#6C63FF"/>
<path d="M1853.42 339H1831.15C1830.46 339.002 1829.8 339.277 1829.32 339.764C1828.83 340.252 1828.56 340.912 1828.56 341.6V363.87C1828.56 364.556 1828.83 365.215 1829.32 365.701C1829.8 366.187 1830.46 366.459 1831.15 366.46H1853.42C1854.11 366.46 1854.77 366.187 1855.25 365.702C1855.74 365.216 1856.02 364.557 1856.02 363.87V341.6C1856.02 340.911 1855.74 340.25 1855.25 339.763C1854.77 339.276 1854.11 339.002 1853.42 339Z" fill="#6C63FF"/>
<path d="M1853.42 376.95H1831.15C1830.46 376.952 1829.8 377.227 1829.32 377.714C1828.83 378.202 1828.56 378.862 1828.56 379.55V401.81C1828.56 402.15 1828.62 402.488 1828.75 402.803C1828.88 403.119 1829.07 403.405 1829.31 403.647C1829.55 403.888 1829.84 404.08 1830.15 404.211C1830.47 404.342 1830.81 404.409 1831.15 404.409H1853.42C1854.11 404.409 1854.77 404.135 1855.26 403.648C1855.74 403.16 1856.02 402.499 1856.02 401.81V379.55C1856.02 378.861 1855.74 378.2 1855.25 377.713C1854.77 377.226 1854.11 376.952 1853.42 376.95Z" fill="#E6E6E6"/>
<path d="M1853.42 414.899H1831.15C1830.46 414.902 1829.8 415.177 1829.32 415.664C1828.83 416.152 1828.56 416.812 1828.56 417.5V439.76C1828.56 440.1 1828.62 440.438 1828.75 440.753C1828.88 441.069 1829.07 441.355 1829.31 441.597C1829.55 441.838 1829.84 442.03 1830.15 442.161C1830.47 442.292 1830.81 442.359 1831.15 442.36H1853.42C1854.11 442.359 1854.77 442.085 1855.26 441.598C1855.74 441.11 1856.02 440.449 1856.02 439.76V417.5C1856.02 416.811 1855.74 416.15 1855.25 415.663C1854.77 415.176 1854.11 414.902 1853.42 414.899Z" fill="#6C63FF"/>
<path d="M1853.42 452.85H1831.15C1830.81 452.85 1830.47 452.917 1830.15 453.048C1829.84 453.179 1829.55 453.371 1829.31 453.612C1829.07 453.854 1828.88 454.141 1828.75 454.456C1828.62 454.771 1828.56 455.109 1828.56 455.45V477.71C1828.56 478.05 1828.62 478.388 1828.75 478.703C1828.88 479.019 1829.07 479.305 1829.31 479.547C1829.55 479.788 1829.84 479.98 1830.15 480.111C1830.47 480.242 1830.81 480.309 1831.15 480.31H1853.42C1854.11 480.309 1854.77 480.035 1855.26 479.548C1855.74 479.06 1856.02 478.399 1856.02 477.71V455.45C1856.02 454.76 1855.74 454.099 1855.26 453.611C1854.77 453.124 1854.11 452.85 1853.42 452.85Z" fill="#6C63FF"/>
<path d="M1900.18 301.05H1877.91C1877.22 301.052 1876.56 301.327 1876.08 301.814C1875.59 302.302 1875.32 302.962 1875.32 303.649V325.919C1875.32 326.606 1875.59 327.265 1876.08 327.751C1876.56 328.236 1877.22 328.509 1877.91 328.51H1900.18C1900.87 328.51 1901.53 328.237 1902.01 327.752C1902.5 327.266 1902.78 326.607 1902.78 325.919V303.649C1902.78 302.961 1902.5 302.3 1902.01 301.813C1901.53 301.326 1900.87 301.052 1900.18 301.05Z" fill="#E6E6E6"/>
<path d="M1900.18 339H1877.91C1877.22 339.002 1876.56 339.277 1876.08 339.764C1875.59 340.252 1875.32 340.912 1875.32 341.6V363.87C1875.32 364.556 1875.59 365.215 1876.08 365.701C1876.56 366.187 1877.22 366.459 1877.91 366.46H1900.18C1900.87 366.46 1901.53 366.187 1902.01 365.702C1902.5 365.216 1902.78 364.557 1902.78 363.87V341.6C1902.78 340.911 1902.5 340.25 1902.01 339.763C1901.53 339.276 1900.87 339.002 1900.18 339Z" fill="#6C63FF"/>
<path d="M1900.18 376.95H1877.91C1877.22 376.952 1876.56 377.227 1876.08 377.714C1875.59 378.202 1875.32 378.862 1875.32 379.55V401.81C1875.32 402.15 1875.38 402.488 1875.51 402.803C1875.64 403.119 1875.83 403.405 1876.07 403.647C1876.31 403.888 1876.6 404.08 1876.91 404.211C1877.23 404.342 1877.57 404.409 1877.91 404.409H1900.18C1900.87 404.409 1901.53 404.135 1902.02 403.648C1902.5 403.16 1902.78 402.499 1902.78 401.81V379.55C1902.78 378.861 1902.5 378.2 1902.01 377.713C1901.53 377.226 1900.87 376.952 1900.18 376.95Z" fill="#6C63FF"/>
<path d="M1900.18 414.899H1877.91C1877.22 414.902 1876.56 415.177 1876.08 415.664C1875.59 416.152 1875.32 416.812 1875.32 417.5V439.76C1875.32 440.1 1875.38 440.438 1875.51 440.753C1875.64 441.069 1875.83 441.355 1876.07 441.597C1876.31 441.838 1876.6 442.03 1876.91 442.161C1877.23 442.292 1877.57 442.359 1877.91 442.36H1900.18C1900.87 442.359 1901.53 442.085 1902.02 441.598C1902.5 441.11 1902.78 440.449 1902.78 439.76V417.5C1902.78 416.811 1902.5 416.15 1902.01 415.663C1901.53 415.176 1900.87 414.902 1900.18 414.899Z" fill="#6C63FF"/>
<path d="M1900.18 452.85H1877.91C1877.57 452.85 1877.23 452.917 1876.91 453.048C1876.6 453.179 1876.31 453.371 1876.07 453.612C1875.83 453.854 1875.64 454.141 1875.51 454.456C1875.38 454.771 1875.32 455.109 1875.32 455.45V477.71C1875.32 478.05 1875.38 478.388 1875.51 478.703C1875.64 479.019 1875.83 479.305 1876.07 479.547C1876.31 479.788 1876.6 479.98 1876.91 480.111C1877.23 480.242 1877.57 480.309 1877.91 480.31H1900.18C1900.87 480.309 1901.53 480.035 1902.02 479.548C1902.5 479.06 1902.78 478.399 1902.78 477.71V455.45C1902.78 454.76 1902.5 454.099 1902.02 453.611C1901.53 453.124 1900.87 452.85 1900.18 452.85Z" fill="#E6E6E6"/>
<path d="M1435.09 781.051H1434.47L1435 780.981L1435.09 781.051Z" fill="#2F2E41"/>
<path d="M1381.81 366.055C1419.55 366.055 1450.14 335.466 1450.14 297.733C1450.14 260 1419.55 229.411 1381.81 229.411C1344.08 229.411 1313.49 260 1313.49 297.733C1313.49 335.466 1344.08 366.055 1381.81 366.055Z" fill="#FFB6B6"/>
<path d="M1441.65 247.64C1441.65 247.64 1459.52 213.479 1420.2 210.374C1420.2 210.374 1386.69 179.972 1352.53 204.816C1352.53 204.816 1333.89 204.816 1323.7 225.902C1323.7 225.902 1309.05 220.344 1305.83 235.218C1305.83 235.218 1295.1 266.274 1305.83 294.223C1316.55 322.173 1320.11 325.279 1320.11 325.279C1320.11 325.279 1302.49 266.68 1345.38 263.575C1388.27 260.469 1436.27 233.665 1439.84 267.826C1443.42 301.987 1448.8 310.404 1448.8 310.404C1448.8 310.404 1482.75 261.615 1441.65 247.64Z" fill="#2F2E41"/>
<path d="M1558.55 466.11L1558.33 467.27L1555.86 480.31L1538.79 570.51L1537.78 575.82L1535.66 587.05L1532.76 602.37L1526.33 636.32L1524.49 646.05L1523.8 649.7L1523.56 650.98L1521.65 661.05L1521.07 664.09L1516.41 698.62L1512.34 728.71L1525.96 742.329L1517.84 750.449L1512.51 780.98L1512.52 781.05H1294.99C1286.19 775.35 1277.51 769.473 1268.97 763.419L1270.76 750.02C1270.76 750.02 1276.92 726.09 1274.33 723.23C1271.75 720.37 1266.09 715.26 1266.09 715.26L1273.22 698.62L1274.21 696.31L1272.55 661.88L1272.51 661.05L1271.96 649.699L1271.89 648.239L1271.78 646.05L1269.67 602.369L1269.63 601.649L1268.99 588.409L1268.39 575.82L1268.13 570.509L1265.56 517.379L1263.82 481.3L1262.3 449.89L1268.41 447.82L1333.76 425.609L1360.83 390.419L1417.17 390.839L1444.75 391.05L1490.77 433.729L1501.24 438.729L1501.32 438.769L1508.83 442.359L1527.87 451.449L1548 461.07L1558.33 466L1558.55 466.11Z" fill="#CACACA"/>
<path d="M1368.11 678.551C1363.98 680.15 1359.55 680.825 1355.13 680.528C1350.72 680.23 1346.42 678.968 1342.54 676.829C1338.66 674.691 1335.3 671.728 1332.69 668.15C1330.09 664.572 1328.29 660.466 1327.44 656.121L1220.89 641.003L1257.93 599.101L1353.44 619.881C1360.83 618.938 1368.32 620.74 1374.47 624.946C1380.63 629.151 1385.03 635.469 1386.83 642.701C1388.64 649.932 1387.73 657.576 1384.28 664.184C1380.83 670.791 1375.08 675.903 1368.11 678.551Z" fill="#FFB6B6"/>
<path d="M1320.6 602.37C1318.62 599.867 1315.83 598.142 1312.71 597.5L1268.99 588.409L1264.5 587.48C1261.89 586.935 1259.42 585.846 1257.26 584.283C1255.11 582.72 1253.3 580.718 1251.97 578.409C1250.59 575.986 1249.75 573.29 1249.52 570.51C1249.31 567.982 1249.61 565.438 1250.41 563.03L1265.56 517.38L1275.39 487.76C1276.58 484.187 1277.28 480.47 1277.48 476.71C1278.03 466.302 1274.81 456.046 1268.41 447.82C1262.78 440.589 1254.98 435.359 1246.16 432.903C1237.33 430.446 1227.95 430.894 1219.4 434.18C1219.15 434.27 1218.89 434.37 1218.64 434.47C1212.51 436.918 1207.03 440.76 1202.63 445.691C1198.24 450.621 1195.06 456.506 1193.33 462.88L1182.65 501.73L1160.62 581.82C1158.41 589.844 1157.97 598.25 1159.31 606.462C1160.66 614.675 1163.76 622.5 1168.41 629.402C1173.06 636.304 1179.14 642.12 1186.25 646.451C1193.36 650.783 1201.31 653.528 1209.58 654.5L1272.55 661.88L1301.69 665.3C1305.06 665.705 1308.46 664.825 1311.21 662.837C1313.96 660.848 1315.86 657.896 1316.53 654.57C1316.58 654.388 1316.61 654.205 1316.64 654.02L1317.34 649.699L1323.27 613.32L1323.33 612.949C1323.64 611.093 1323.55 609.193 1323.08 607.37C1322.61 605.548 1321.77 603.845 1320.6 602.37Z" fill="#CACACA"/>
<path d="M1435.98 679.717C1440.3 680.718 1444.78 680.762 1449.11 679.844C1453.44 678.927 1457.52 677.071 1461.05 674.407C1464.59 671.743 1467.5 668.336 1469.58 664.426C1471.65 660.517 1472.85 656.199 1473.08 651.777L1576.44 621.783L1533.86 585.524L1442.23 619.565C1434.78 619.674 1427.62 622.513 1422.12 627.545C1416.62 632.577 1413.16 639.451 1412.39 646.866C1411.62 654.28 1413.59 661.72 1417.94 667.775C1422.29 673.829 1428.71 678.079 1435.98 679.717Z" fill="#FFB6B6"/>
<path d="M1627.76 554.69L1578.6 441.55C1574.58 432.261 1567.4 424.697 1558.33 420.2C1555.53 418.82 1552.58 417.747 1549.55 417C1549.08 416.88 1548.61 416.77 1548.14 416.679C1541.71 415.276 1535.03 415.399 1528.66 417.04C1522.83 418.537 1517.38 421.246 1512.67 424.99C1507.96 428.734 1504.09 433.43 1501.32 438.77C1501.29 438.814 1501.26 438.861 1501.24 438.909C1498.14 444.904 1496.49 451.543 1496.43 458.29C1496.36 465.038 1497.88 471.707 1500.87 477.76L1501.48 478.98L1536.22 548.75C1537.4 551.135 1538.07 553.745 1538.18 556.407C1538.29 559.07 1537.83 561.724 1536.84 564.198C1535.85 566.671 1534.34 568.906 1532.43 570.757C1530.51 572.609 1528.22 574.034 1525.72 574.939L1523.28 575.82L1479.4 591.669C1476.11 592.844 1473.4 595.251 1471.84 598.383C1470.29 601.515 1470.01 605.127 1471.07 608.46L1471.18 608.81L1483.48 648.169C1483.54 648.35 1483.6 648.53 1483.67 648.709C1483.78 649.049 1483.91 649.38 1484.07 649.699C1485.38 652.631 1487.69 655 1490.58 656.381C1493.48 657.761 1496.78 658.062 1499.88 657.229L1523.56 650.979L1528.39 649.699L1589.54 633.55C1597.58 631.423 1605.08 627.584 1611.5 622.293C1617.92 617.003 1623.13 610.386 1626.76 602.897C1630.39 595.408 1632.36 587.223 1632.53 578.903C1632.7 570.582 1631.07 562.323 1627.76 554.69Z" fill="#CACACA"/>
<path d="M1143.9 649.7C1158.07 666.983 1173.35 683.325 1189.65 698.62H1641.62C1645.97 698.626 1650.15 700.36 1653.22 703.44C1656.3 706.52 1658.03 710.695 1658.04 715.05L1658.69 829.58C1686.49 816.805 1712.53 800.493 1736.16 781.05C1742.72 775.66 1749.07 770.036 1755.23 764.18C1759.26 760.36 1763.19 756.446 1767.03 752.44C1795.79 722.475 1819.08 687.702 1835.85 649.7H1143.9Z" fill="#3F3D56"/>
<path d="M1767.03 752.44C1763.2 756.45 1759.26 760.363 1755.23 764.18H1659.02V752.44H1767.03Z" fill="white"/>
<path d="M1557.65 376.95C1557.17 376.072 1556.47 375.34 1555.61 374.829C1554.75 374.319 1553.78 374.049 1552.78 374.05H1224.94C1223.47 374.053 1222.06 374.64 1221.02 375.68C1219.98 376.72 1219.4 378.13 1219.4 379.6V575.82H1558.33V379.6C1558.33 378.672 1558.1 377.76 1557.65 376.95Z" fill="#3F3D56"/>
<path d="M1219.1 570.507V594.721C1219.1 595.725 1219.3 596.719 1219.68 597.646C1220.07 598.574 1220.63 599.416 1221.34 600.126C1222.05 600.836 1222.89 601.399 1223.82 601.783C1224.75 602.167 1225.74 602.365 1226.74 602.365H1351.84V650.151H1350.18C1350.05 650.151 1349.92 650.177 1349.8 650.227C1349.68 650.277 1349.57 650.35 1349.48 650.442C1349.39 650.534 1349.31 650.644 1349.26 650.764C1349.21 650.885 1349.19 651.014 1349.19 651.144V654.468C1349.19 654.599 1349.21 654.728 1349.26 654.848C1349.31 654.969 1349.39 655.078 1349.48 655.17C1349.57 655.263 1349.68 655.336 1349.8 655.386C1349.92 655.435 1350.05 655.461 1350.18 655.461H1427.84C1427.97 655.461 1428.1 655.435 1428.22 655.386C1428.34 655.336 1428.45 655.263 1428.54 655.17C1428.63 655.078 1428.71 654.969 1428.76 654.848C1428.81 654.728 1428.83 654.599 1428.83 654.468V651.144C1428.83 651.014 1428.81 650.885 1428.76 650.764C1428.71 650.644 1428.63 650.534 1428.54 650.442C1428.45 650.35 1428.34 650.277 1428.22 650.227C1428.1 650.177 1427.97 650.151 1427.84 650.151H1426.18V602.365H1551.27C1552.28 602.365 1553.27 602.167 1554.2 601.783C1555.13 601.399 1555.97 600.836 1556.68 600.126C1557.39 599.416 1557.95 598.574 1558.34 597.646C1558.72 596.719 1558.92 595.725 1558.92 594.721V570.507H1219.1Z" fill="#3F3D56"/>
<path d="M1384.9 501.01C1402.19 501.01 1416.21 486.994 1416.21 469.704C1416.21 452.414 1402.19 438.397 1384.9 438.397C1367.61 438.397 1353.6 452.414 1353.6 469.704C1353.6 486.994 1367.61 501.01 1384.9 501.01Z" fill="#6C63FF"/>
<path d="M1464.67 294H1459.67C1459.67 256.2 1422.26 231.43 1384.52 231.41C1379.03 231.394 1373.55 231.926 1368.17 233C1362.11 234.21 1355.82 235.66 1349.64 237.55C1325.27 245.02 1302.67 259.46 1302.67 294C1302.66 300.707 1303.52 307.388 1305.21 313.88L1300.37 315.14C1298.57 308.236 1297.67 301.132 1297.67 294C1297.67 263.82 1310.06 243.09 1331.46 230.73C1342.71 224.23 1356.44 220.04 1372.17 218C1378.71 217.129 1385.33 216.928 1391.92 217.4C1435.32 220.52 1464.67 253.8 1464.67 294Z" fill="#6C63FF"/>
<path d="M1473 296.77L1471.03 282.21C1470.54 278.533 1468.77 275.146 1466.03 272.65C1464.27 271.022 1462.16 269.816 1459.86 269.123C1457.57 268.43 1455.15 268.268 1452.78 268.65L1449.65 269.08C1448.79 269.192 1447.97 269.474 1447.22 269.908C1446.47 270.343 1445.82 270.921 1445.3 271.61C1444.77 272.296 1444.39 273.08 1444.17 273.916C1443.94 274.751 1443.89 275.623 1444.01 276.48L1448.56 310.02C1448.75 311.387 1449.36 312.66 1450.31 313.66C1451.26 314.659 1452.5 315.334 1453.86 315.59C1454.26 315.67 1454.67 315.71 1455.08 315.71C1455.37 315.709 1455.67 315.689 1455.96 315.65L1459.46 315.18C1461.59 314.896 1463.65 314.18 1465.49 313.074C1467.34 311.968 1468.94 310.497 1470.2 308.75C1470.47 308.37 1470.73 307.98 1470.97 307.579C1472.84 304.307 1473.56 300.499 1473 296.77Z" fill="#6C63FF"/>
<path d="M1447.63 269.69C1446.71 270.136 1445.91 270.794 1445.3 271.61C1444.77 272.296 1444.39 273.08 1444.17 273.916C1443.94 274.751 1443.89 275.623 1444.01 276.48L1448.56 310.02C1448.75 311.387 1449.36 312.66 1450.31 313.66C1451.26 314.659 1452.5 315.334 1453.86 315.59L1447.63 269.69Z" fill="white"/>
<path d="M1473 296.77L1471.03 282.21C1470.54 278.533 1468.77 275.146 1466.03 272.65L1470.56 306.02C1470.63 306.555 1470.76 307.08 1470.97 307.58C1472.84 304.307 1473.56 300.499 1473 296.77Z" fill="#3F3D56"/>
<path d="M1457.43 307.26C1458.8 307.075 1459.48 303.819 1458.96 299.988C1458.44 296.157 1456.91 293.202 1455.55 293.387C1454.18 293.573 1453.49 296.829 1454.01 300.66C1454.53 304.491 1456.06 307.446 1457.43 307.26Z" fill="#3F3D56"/>
<path d="M1454.43 289.26C1455.8 289.075 1456.48 285.819 1455.96 281.988C1455.44 278.157 1453.91 275.202 1452.55 275.387C1451.18 275.573 1450.49 278.829 1451.01 282.66C1451.53 286.491 1453.06 289.446 1454.43 289.26Z" fill="#3F3D56"/>
<path d="M1473.43 296.26C1474.8 296.075 1475.48 292.819 1474.96 288.988C1474.45 285.157 1472.91 282.202 1471.55 282.387C1470.18 282.573 1469.49 285.829 1470.01 289.66C1470.53 293.491 1472.06 296.446 1473.43 296.26Z" fill="#3F3D56"/>
<path d="M1384.52 231.41C1379.03 231.393 1373.55 231.926 1368.17 233C1362.11 234.21 1355.82 235.66 1349.64 237.55C1339.99 237.08 1332.89 234.58 1331.46 230.73C1342.71 224.23 1356.44 220.04 1372.17 218C1378.71 217.129 1385.33 216.928 1391.92 217.4C1392.62 217.808 1393.22 218.36 1393.69 219.018C1394.16 219.677 1394.48 220.427 1394.64 221.22C1395.11 224.7 1391.14 228.4 1384.52 231.41Z" fill="#3F3D56"/>
<path d="M1320.68 328.7L1312.98 296.69C1312.7 295.535 1312.09 294.487 1311.23 293.677C1310.36 292.868 1309.27 292.333 1308.1 292.14C1307.77 292.088 1307.43 292.061 1307.1 292.06C1306.63 292.061 1306.16 292.118 1305.7 292.23L1302.72 292.95C1298.88 293.878 1295.57 296.29 1293.51 299.657C1291.45 303.024 1290.81 307.071 1291.73 310.91L1295.18 325.27C1295.97 328.65 1297.84 331.679 1300.52 333.89C1300.95 334.24 1301.41 334.564 1301.88 334.86C1303.55 335.91 1305.42 336.614 1307.38 336.93C1309.33 337.246 1311.33 337.168 1313.25 336.7L1316.22 335.98C1317 335.796 1317.74 335.453 1318.39 334.97C1319.35 334.269 1320.08 333.299 1320.49 332.183C1320.89 331.066 1320.96 329.854 1320.68 328.7Z" fill="#6C63FF"/>
<path d="M1304.54 322.744C1305.88 322.421 1306.23 319.112 1305.33 315.353C1304.42 311.594 1302.6 308.809 1301.26 309.132C1299.92 309.455 1299.56 312.764 1300.47 316.523C1301.37 320.282 1303.19 323.067 1304.54 322.744Z" fill="#3F3D56"/>
<path d="M1294.54 325.744C1295.88 325.421 1296.23 322.112 1295.33 318.353C1294.42 314.594 1292.6 311.809 1291.26 312.132C1289.92 312.455 1289.56 315.764 1290.47 319.523C1291.37 323.282 1293.19 326.067 1294.54 325.744Z" fill="#3F3D56"/>
<path d="M1321.17 328.58L1313.47 296.57C1313.17 295.32 1312.51 294.187 1311.57 293.312C1310.62 292.436 1309.45 291.858 1308.18 291.65L1318.69 335.37C1319.73 334.609 1320.52 333.559 1320.96 332.35C1321.4 331.142 1321.47 329.83 1321.17 328.58Z" fill="white"/>
<path d="M1293.47 304.57C1293.26 303.679 1292.86 302.844 1292.3 302.12C1291.22 304.923 1291.02 307.99 1291.73 310.91L1295.18 325.27C1295.97 328.65 1297.84 331.679 1300.52 333.89L1293.47 304.57Z" fill="#3F3D56"/>
</g>
</g>
<rect x="1" y="1" width="1920" height="1080" stroke="black"/>
<defs>
<linearGradient id="paint0_linear_1_2" x1="1905" y1="17.5002" x2="9.50009" y2="1060" gradientUnits="userSpaceOnUse">
<stop stop-color="#38A093"/>
<stop offset="1" stop-color="#3FD7C5"/>
</linearGradient>
<linearGradient id="paint1_linear_1_2" x1="1620.5" y1="166" x2="1284" y2="752" gradientUnits="userSpaceOnUse">
<stop stop-color="#4AC5B6"/>
<stop offset="1" stop-color="#2D9E90"/>
</linearGradient>
<clipPath id="clip0_1_2">
<rect x="1" y="1" width="1920" height="1080" fill="white"/>
</clipPath>
<clipPath id="clip1_1_2">
<rect width="850.538" height="740.83" fill="white" transform="translate(1099 121)"/>
</clipPath>
</defs>
</svg>
