<svg width="50" height="50" viewBox="0 0 50 50" fill="none" xmlns="http://www.w3.org/2000/svg">
<g clip-path="url(#clip0_1_7)">
<path d="M20.8333 19.4437L31.9437 24.9896L20.8333 30.5562V19.4437ZM50 10.4167V39.5833C50 45.3354 45.3375 50 39.5833 50H10.4167C4.66458 50 0 45.3354 0 39.5833V10.4167C0 4.66458 4.66458 0 10.4167 0H39.5833C45.3375 0 50 4.66458 50 10.4167ZM41.6667 25C41.625 16.4104 40.9937 13.125 35.5771 12.7562C30.5708 12.4146 19.4229 12.4167 14.425 12.7562C9.0125 13.125 8.375 16.3958 8.33333 25C8.375 33.5896 9.00625 36.875 14.4229 37.2438C19.4208 37.5833 30.5687 37.5854 35.575 37.2438C40.9875 36.875 41.625 33.6042 41.6667 25Z" fill="#505050"/>
</g>
<defs>
<clipPath id="clip0_1_7">
<rect width="50" height="50" fill="white"/>
</clipPath>
</defs>
</svg>
