<svg width="50" height="50" viewBox="0 0 50 50" fill="none" xmlns="http://www.w3.org/2000/svg">
<path d="M7.32083 13.825C6.66042 14.1979 6.25 14.9063 6.25 15.6729V34.3188C6.25 35.0896 6.66042 35.7938 7.32083 36.1667C10.6479 38.0438 20.7708 43.7479 23.9979 45.5667C24.3146 45.7438 24.6625 45.8334 25.0125 45.8334C25.3542 45.8334 25.6958 45.7479 26.0062 45.5771C29.2333 43.7959 39.3187 38.2375 42.6604 36.3938C43.3333 36.025 43.75 35.3125 43.75 34.5375V15.6729C43.75 14.9063 43.3396 14.1979 42.6771 13.825C39.3542 11.9521 29.2521 6.25835 26.0125 4.43335C25.6979 4.25627 25.3479 4.16669 25 4.16669C24.65 4.16669 24.3021 4.25627 23.9875 4.43335C20.7479 6.25835 10.6437 11.9521 7.32083 13.825ZM40.625 18.2313V33.9084L26.5625 41.6625V25.875L40.625 18.2313ZM10.9083 15.4313L25 7.48752L39.1687 15.475L25 23.2167L10.9083 15.4313Z" fill="#505050"/>
</svg>
